<?xml version="1.0" standalone="no"?>
<!DOCTYPE svg PUBLIC "-//W3C//DTD SVG 20010904//EN"
 "http://www.w3.org/TR/2001/REC-SVG-20010904/DTD/svg10.dtd">
<svg version="1.0" xmlns="http://www.w3.org/2000/svg"
 width="1467.000000pt" height="1467.000000pt" viewBox="0 0 1467.000000 1467.000000"
 preserveAspectRatio="xMidYMid meet">
<metadata>
Created by potrace 1.14, written by Peter Selinger 2001-2017
</metadata>
<g transform="translate(0.000000,1467.000000) scale(0.100000,-0.100000)"
fill="#000000" stroke="none">
<path d="M4820 13968 c-41 -5 -199 -10 -350 -12 -151 -1 -288 -6 -305 -10 -16
-3 -66 -13 -110 -22 -147 -28 -361 -112 -458 -178 -21 -14 -40 -26 -44 -26 -6
0 -227 -156 -246 -173 -6 -7 -37 -31 -68 -53 -30 -23 -78 -61 -105 -84 -27
-23 -71 -61 -98 -83 -172 -146 -468 -434 -552 -537 -16 -19 -34 -39 -40 -45
-21 -18 -140 -170 -183 -233 -22 -34 -58 -94 -78 -134 -37 -72 -38 -75 -38
-188 0 -104 5 -168 19 -225 3 -11 12 -51 22 -90 22 -93 85 -282 135 -402 23
-54 43 -106 46 -115 12 -39 18 -13 18 75 1 144 23 319 26 211 1 -21 3 -55 4
-74 2 -19 6 -71 9 -115 9 -118 24 -302 31 -375 3 -25 7 -83 11 -129 3 -46 7
-92 9 -101 2 -10 6 -57 10 -106 3 -49 9 -98 12 -108 4 -15 -5 -11 -38 17 -176
149 -247 197 -294 197 -25 0 -70 -32 -85 -59 -13 -25 -47 -157 -55 -216 -4
-27 -9 -59 -11 -70 -28 -146 -24 -605 6 -700 5 -16 21 -71 36 -121 l26 -91
-44 -69 c-202 -311 -345 -571 -454 -826 -19 -45 -41 -96 -49 -112 -87 -189
-252 -725 -288 -932 -3 -16 -14 -76 -25 -134 -23 -117 -28 -152 -38 -225 -3
-27 -8 -58 -9 -67 -2 -9 -7 -48 -10 -85 -4 -37 -8 -79 -11 -93 -26 -156 -25
-811 2 -1045 2 -22 6 -62 9 -90 3 -27 8 -61 10 -75 2 -14 7 -45 10 -70 8 -61
14 -100 21 -132 3 -15 7 -39 9 -55 47 -323 201 -826 371 -1213 266 -604 657
-1174 1123 -1637 l43 -43 -513 -1 c-283 0 -534 -2 -559 -5 -99 -10 -219 -64
-296 -134 -92 -84 -141 -162 -174 -281 -19 -68 -20 -101 -20 -426 1 -321 3
-358 21 -425 29 -104 64 -162 145 -245 81 -83 183 -138 292 -159 50 -9 1217
-12 5251 -10 4710 2 5190 4 5231 18 117 42 198 93 271 172 61 65 120 191 134
287 8 51 9 666 1 721 -35 251 -243 458 -486 482 -25 3 -441 5 -924 5 l-880 1
95 98 c186 192 290 314 444 517 94 124 281 400 322 475 10 19 26 46 35 60 61
94 235 444 305 615 58 139 65 156 69 170 2 6 22 62 45 125 68 193 153 486 183
640 26 129 56 294 61 335 3 28 10 75 15 105 5 30 12 89 16 130 3 41 8 84 10
94 8 42 18 332 18 506 -1 173 -9 373 -19 465 -3 22 -7 63 -10 90 -3 28 -8 66
-10 85 -3 19 -7 55 -10 80 -3 25 -8 56 -10 70 -2 14 -7 45 -10 70 -4 25 -11
65 -17 90 -5 25 -11 54 -13 65 -3 19 -9 52 -19 100 -51 246 -184 677 -264 858
-14 32 -17 47 -9 49 7 2 434 4 949 3 l936 0 35 65 c58 109 108 263 124 385 10
74 10 251 0 328 -45 368 -274 700 -592 859 -82 41 -223 84 -287 87 -10 1 -29
26 -48 67 -18 36 -58 104 -89 152 -272 413 -659 669 -1124 742 -68 11 -312 14
-377 5 -36 -4 -103 -15 -130 -20 -324 -61 -669 -270 -898 -543 -20 -23 -41
-41 -47 -38 -7 2 -57 40 -111 83 -355 284 -817 555 -1259 738 -366 152 -845
288 -1200 340 -22 4 -47 8 -55 10 -8 2 -43 7 -78 10 -35 4 -73 8 -85 11 -12 2
-49 6 -82 9 -137 12 -180 17 -186 23 -4 4 -10 41 -13 82 -4 41 -9 94 -12 118
-7 53 -10 89 -18 217 -9 139 -15 179 -38 265 -11 41 -21 80 -22 85 -21 91 -96
329 -117 370 -68 137 -267 343 -444 460 -216 142 -861 449 -996 473 -64 12
-282 12 -389 0z"/>
<path d="M3560 475 l0 -276 48 3 47 3 0 270 0 270 -48 3 -47 3 0 -276z"/>
<path d="M5310 475 l0 -276 47 3 48 3 1 120 c0 66 3 129 7 141 10 30 65 53 99
42 38 -13 48 -53 48 -190 l0 -119 48 3 47 3 -1 142 c-1 120 -4 146 -20 175
-39 67 -132 86 -195 39 -16 -12 -30 -21 -31 -21 -2 0 -3 46 -3 103 l0 102 -47
3 -48 3 0 -276z"/>
<path d="M6670 475 l0 -276 48 3 47 3 0 270 0 270 -47 3 -48 3 0 -276z"/>
<path d="M8008 743 c-2 -5 -3 -50 -3 -100 1 -94 -2 -105 -25 -78 -6 7 -31 17
-55 21 -135 20 -224 -111 -184 -270 18 -72 84 -126 154 -126 33 0 85 26 106
53 16 20 16 20 15 -9 -1 -28 1 -29 42 -29 23 0 42 3 42 8 0 4 0 126 0 272 l0
265 -44 0 c-25 0 -46 -3 -48 -7z m-40 -242 c42 -22 53 -142 18 -193 -28 -41
-53 -49 -98 -31 -41 16 -62 55 -62 114 1 98 68 150 142 110z"/>
<path d="M10200 474 l0 -275 48 3 47 3 1 115 c2 149 1 143 24 168 21 22 73 30
97 14 24 -15 33 -66 33 -183 l0 -120 47 3 48 3 0 120 c2 194 -27 254 -123 260
-41 3 -58 -1 -87 -21 -20 -13 -37 -24 -38 -24 -2 0 -2 42 -2 93 1 50 -1 98 -3
105 -2 7 -22 12 -48 12 l-44 0 0 -276z"/>
<path d="M2315 468 l0 -263 158 -3 157 -3 0 41 0 40 -110 0 -110 0 0 75 c0 53
4 75 13 76 6 1 50 2 97 3 l85 1 2 38 3 37 -100 0 -100 0 0 70 0 70 105 0 105
0 0 40 0 40 -153 0 -152 0 0 -262z"/>
<path d="M11317 683 c2 -43 11 -259 13 -305 0 -14 9 -18 35 -18 21 0 35 5 36
13 3 30 7 131 10 237 l4 115 -51 3 -50 3 3 -48z"/>
<path d="M5089 663 c-43 -13 -45 -15 -44 -48 2 -32 0 -35 -26 -35 -26 0 -28
-3 -27 -35 1 -19 6 -36 12 -36 6 -1 18 -2 26 -3 12 -1 15 -22 16 -116 1 -63 7
-128 13 -143 14 -35 69 -59 125 -55 39 3 41 5 44 41 3 35 2 37 -27 37 -52 0
-61 19 -61 135 l0 103 33 0 c55 -1 57 1 57 37 0 35 0 35 -44 35 l-45 0 -3 48
-3 48 -46 -13z"/>
<path d="M8419 663 c-44 -13 -46 -15 -44 -48 3 -32 1 -35 -26 -35 -27 0 -28
-2 -25 -32 2 -18 4 -36 5 -39 0 -3 11 -5 23 -5 22 1 22 -2 23 -109 1 -157 22
-197 107 -204 61 -4 76 5 75 44 -1 32 -4 35 -32 35 -49 0 -55 13 -55 131 l0
107 33 0 c55 -1 57 1 57 37 0 35 0 35 -44 35 l-45 0 -3 48 -3 48 -46 -13z"/>
<path d="M9979 663 c-44 -13 -46 -15 -43 -48 2 -32 0 -35 -26 -35 -25 0 -28
-3 -28 -35 0 -19 5 -36 12 -36 6 -1 18 -2 26 -3 12 -1 15 -20 16 -106 0 -58 4
-120 8 -137 9 -40 48 -68 98 -72 60 -4 76 5 75 41 -2 28 -6 33 -36 39 -18 4
-37 13 -42 21 -5 7 -9 59 -9 115 l0 101 43 -1 c42 -2 42 -1 45 36 l3 37 -45 0
-45 0 -3 48 -3 48 -46 -13z"/>
<path d="M3264 579 c-17 -5 -43 -21 -58 -36 -15 -15 -27 -23 -25 -18 1 6 1 20
0 33 -1 19 -7 22 -40 22 -22 0 -41 -4 -43 -10 -1 -5 -2 -125 0 -265 l3 -256
47 3 47 3 -1 88 c0 48 2 86 5 84 106 -60 195 -42 253 51 19 31 23 50 23 117
-1 71 -4 85 -29 122 -41 62 -106 84 -182 62z m60 -75 c43 -21 61 -54 60 -110
-2 -62 -21 -100 -58 -118 -43 -20 -75 -13 -107 24 -22 26 -26 39 -24 89 3 70
17 98 58 116 18 8 33 14 34 15 1 0 18 -7 37 -16z"/>
<path d="M3858 576 c-146 -63 -158 -295 -18 -364 58 -28 141 -25 193 9 56 36
91 115 84 192 -6 69 -41 128 -89 153 -40 21 -133 26 -170 10z m117 -72 c28
-18 45 -62 45 -115 0 -153 -155 -179 -176 -30 -8 60 2 105 33 135 29 30 63 33
98 10z"/>
<path d="M4345 579 c-11 -6 -30 -23 -42 -38 l-23 -26 0 33 c0 31 -1 32 -42 32
l-43 0 3 -190 3 -190 44 0 c29 0 45 5 46 13 1 6 3 55 4 107 1 52 3 103 4 113
2 30 47 67 81 67 29 0 30 2 30 45 0 40 -2 45 -22 45 -13 0 -32 -5 -43 -11z"/>
<path d="M4581 583 c-13 -3 -29 -9 -35 -14 -78 -62 -100 -109 -94 -204 3 -53
9 -71 34 -102 17 -21 44 -45 60 -53 41 -21 209 -18 231 4 3 3 1 17 -4 33 -8
20 -15 27 -29 23 -10 -2 -47 -4 -82 -5 -60 0 -65 2 -93 33 -53 59 -42 66 105
65 l128 -1 -5 59 c-7 71 -26 110 -68 139 -30 22 -99 33 -148 23z m109 -91 c11
-13 20 -33 20 -43 0 -17 -9 -19 -85 -19 -47 0 -85 4 -85 9 0 5 8 23 18 40 30
53 96 60 132 13z"/>
<path d="M5847 576 c-128 -47 -161 -250 -56 -340 46 -39 114 -54 193 -42 63
10 80 25 67 59 -6 16 -15 26 -21 22 -5 -3 -35 -8 -67 -11 -47 -4 -64 -1 -91
15 -31 20 -61 65 -50 77 3 3 63 5 133 6 l127 1 -5 58 c-5 63 -28 112 -67 141
-34 25 -115 32 -163 14z m128 -84 c24 -60 22 -62 -70 -62 -47 0 -85 3 -85 6 0
3 7 21 16 40 11 23 26 37 48 42 37 10 82 -3 91 -26z"/>
<path d="M6465 586 c-5 -2 -22 -7 -37 -10 -78 -17 -135 -115 -124 -212 7 -70
35 -116 88 -148 34 -20 52 -24 114 -22 40 1 79 7 85 13 14 14 2 73 -14 68 -72
-24 -141 -2 -164 53 -49 116 38 218 153 179 19 -7 23 -3 28 29 4 20 6 38 3 40
-6 6 -120 14 -132 10z"/>
<path d="M6971 576 c-142 -51 -163 -277 -34 -357 72 -45 184 -29 244 34 61 64
64 189 6 271 -40 56 -138 80 -216 52z m128 -82 c61 -78 24 -234 -57 -234 -32
0 -69 30 -83 67 -13 34 -11 97 3 130 28 65 100 85 137 37z"/>
<path d="M8728 575 c-76 -31 -118 -102 -114 -196 3 -107 59 -172 160 -185 51
-7 125 15 157 47 64 64 76 192 25 269 -46 70 -147 99 -228 65z m127 -81 c66
-72 30 -234 -53 -234 -52 0 -92 56 -92 130 0 109 85 169 145 104z"/>
<path d="M9155 575 c-76 -41 -112 -116 -102 -212 14 -134 141 -206 238 -134
16 12 30 21 32 21 5 0 -8 -69 -17 -91 -16 -38 -85 -53 -157 -35 l-50 13 -6
-28 c-8 -41 -8 -41 39 -57 59 -20 156 -11 204 18 66 41 77 83 79 313 l1 198
-40 -3 c-24 -2 -42 -8 -42 -15 -1 -7 -2 -16 -3 -20 0 -3 -12 3 -24 16 -32 29
-111 38 -152 16z m111 -61 c34 -9 54 -55 54 -124 0 -54 -3 -65 -29 -90 -37
-37 -85 -34 -118 7 -21 25 -25 41 -26 93 -2 43 17 83 46 101 34 20 41 22 73
13z"/>
<path d="M9615 576 c-90 -41 -134 -144 -111 -255 8 -34 52 -88 89 -108 71 -38
250 -19 232 24 -4 10 -8 23 -8 30 0 7 -3 11 -6 9 -19 -12 -127 -15 -156 -4
-33 11 -76 70 -63 84 4 3 62 7 130 8 l123 1 -1 56 c-1 62 -28 118 -69 145 -33
22 -123 28 -160 10z m117 -74 c9 -9 20 -29 23 -44 l7 -28 -86 0 c-93 0 -97 3
-69 50 30 51 86 60 125 22z"/>
<path d="M10735 576 c-79 -36 -117 -107 -114 -208 5 -133 114 -201 272 -168
55 11 57 12 51 38 -9 37 -14 43 -26 36 -19 -12 -113 -13 -145 -2 -32 12 -74
70 -60 84 3 4 63 6 132 6 l126 -1 -2 52 c-3 58 -33 122 -71 150 -32 24 -124
32 -163 13z m117 -74 c9 -9 20 -29 23 -44 l7 -28 -86 0 c-93 0 -97 3 -69 50
30 51 86 60 125 22z"/>
<path d="M11177 572 c-15 -10 -34 -27 -42 -38 -14 -18 -14 -17 -15 14 0 31 -1
32 -42 32 l-43 0 3 -190 3 -190 44 0 c29 0 45 5 46 13 1 6 3 53 4 102 1 50 3
100 4 111 2 35 34 66 76 73 41 6 41 6 36 76 -1 21 -40 19 -74 -3z"/>
<path d="M2745 483 c56 -84 63 -99 51 -113 -22 -23 -84 -112 -101 -143 l-16
-28 53 3 52 3 36 62 c32 58 50 77 50 54 0 -5 16 -34 36 -65 l37 -56 54 0 54 0
-62 92 c-34 51 -62 97 -62 103 0 6 25 47 56 92 32 44 57 83 57 87 0 3 -22 6
-50 6 l-49 0 -37 -66 -37 -66 -20 34 c-61 100 -58 98 -115 98 l-52 0 65 -97z"/>
<path d="M7312 428 c3 -140 5 -156 26 -185 26 -37 77 -57 127 -49 38 6 85 32
85 47 0 5 5 9 10 9 6 0 10 -11 10 -25 0 -22 4 -25 40 -25 l40 0 0 191 0 190
-47 -3 -48 -3 0 -121 c0 -132 -11 -170 -52 -180 -34 -9 -71 3 -84 29 -8 13
-13 72 -14 147 l-1 125 -48 3 -48 3 4 -153z"/>
<path d="M11338 303 c-11 -3 -20 -19 -24 -40 -6 -31 -3 -40 16 -55 40 -32 85
-16 94 33 8 51 -28 77 -86 62z"/>
</g>
</svg>
